<svg viewBox="0 0 200 200" xmlns="http://www.w3.org/2000/svg">
              <path fill="#FF0066" d="M33.9,-53.6C46.4,-51.6,60.7,-47.4,70.5,-38.2C80.3,-28.9,85.5,-14.4,81.4,-2.4C77.2,9.7,63.7,19.3,55.6,31.4C47.4,43.6,44.7,58.1,36.4,64.3C28,70.5,14,68.2,-1,70C-16,71.7,-32,77.4,-42.3,72.4C-52.5,67.3,-57,51.4,-64.2,37.5C-71.4,23.7,-81.2,11.8,-78.9,1.3C-76.6,-9.2,-62.2,-18.4,-52.3,-27.6C-42.5,-36.8,-37.2,-46,-29.2,-50.6C-21.3,-55.3,-10.6,-55.3,0,-55.4C10.7,-55.5,21.4,-55.6,33.9,-53.6Z" transform="translate(100 100)" />
            </svg>